<?xml version="1.0" encoding="UTF-8"?>
<svg id="Layer_1" data-name="Layer 1" xmlns="http://www.w3.org/2000/svg" xmlns:xlink="http://www.w3.org/1999/xlink" viewBox="0 0 777.6 792">
  <defs>
    <style>
      .cls-1 {
        fill: url(#linear-gradient);
      }

      .cls-1, .cls-2, .cls-3, .cls-4 {
        stroke-width: 0px;
      }

      .cls-2 {
        fill: url(#linear-gradient-4);
      }

      .cls-3 {
        fill: url(#linear-gradient-2);
      }

      .cls-4 {
        fill: url(#linear-gradient-3);
      }
    </style>
    <linearGradient id="linear-gradient" x1="229.82" y1="553.68" x2="229.82" y2="230.96" gradientUnits="userSpaceOnUse">
      <stop offset="0" stop-color="#8d91fe"/>
      <stop offset="1" stop-color="#5348f6"/>
    </linearGradient>
    <linearGradient id="linear-gradient-2" x1="247.15" y1="222.23" x2="379.3" y2="492.08" gradientUnits="userSpaceOnUse">
      <stop offset="0" stop-color="#8d92fa"/>
      <stop offset="1" stop-color="#5348f6"/>
    </linearGradient>
    <linearGradient id="linear-gradient-3" x1="369.73" y1="524.59" x2="512.61" y2="277.1" gradientUnits="userSpaceOnUse">
      <stop offset="0" stop-color="#8d92fa"/>
      <stop offset="1" stop-color="#5348f6"/>
    </linearGradient>
    <linearGradient id="linear-gradient-4" x1="527.94" y1="224.14" x2="527.94" y2="580.39" xlink:href="#linear-gradient"/>
  </defs>
  <path class="cls-1" d="m265.27,552.05l-59.06,26.09c-9.69,4.28-20.58-2.81-20.58-13.41v-260.92c0-30.76,17.73-60.58,45.21-72.72,0,0,43.17-18.95,43.17,9.82l-4.62,113.09,4.62,184.64c0,5.8-3.43,11.06-8.73,13.41Z"/>
  <path class="cls-3" d="m201.59,255.25c3.62-2.72,8.76-.07,12.19,2.9,14.82,12.81,23.31,31.27,31.05,49.26,13.57,31.56,26.38,64.38,38.12,97.02,10.67,29.66,20.88,60.24,40.33,85.53,19.89,25.85,53.16,37.77,85.23,31.18,11.91-2.45,24.66-8.85,27.82-20.59,1.71-6.36.24-13.14-1.82-19.4-5.74-17.43-15.93-33.12-27.81-47.1-4.99-5.88-10.32-11.53-14.4-18.07-3.2-5.11-5.58-10.69-7.92-16.25-9.78-23.23-19.08-46.66-27.89-70.27-7.71-20.67-15.14-41.68-27.01-60.29-11.86-18.6-28.81-34.89-49.9-41.37-28.21-8.67-61.43,3.01-77.99,27.44Z"/>
  <path class="cls-4" d="m573.99,253.14s-14.66.98-37.48,53.95c-7.1,16.49-12.99,38.48-23.57,66.77s-23.95,66.88-36.89,87.99c-30.07,49.04-65.06,74.14-114.56,56.46-20.33-7.26-31.97-20.84-31.97-20.84,3.82,1.86,44.06-48.9,48.1-55.18,19.54-30.43,33.35-64.03,45.46-97.98,6.25-17.53,12.53-35.88,18.39-53.86,4.9-15.06,9.61-32.29,19.62-43.69.21-.24.45-.45.68-.66,14.03-13.12,32.62-21.13,58.74-21.42,32.04-.36,53.49,28.46,53.49,28.46Z"/>
  <path class="cls-2" d="m514.53,556.07l59.06,23.05c9.69,4.28,20.58-2.81,20.58-13.41v-240.32c0-60.76-29.08-95.41-64.39-100.31-22.6-3.14-50.3,1.03-68.02,21.02-2.03,2.29,46.45-3.93,46.15,139.01-.08,39.39-2.12,157.55-2.12,157.55,0,5.8,3.43,11.06,8.73,13.41Z"/>
</svg>